<svg width="141" height="196" viewBox="0 0 141 196" fill="none" xmlns="http://www.w3.org/2000/svg">
<path d="M78.7895 30.311V60.5394C60.3039 52.5737 39.6496 60.2891 31.8332 75.926C22.1684 95.2439 34.657 121.408 55.3114 125.943C63.477 127.74 72.0939 125.914 79.2262 121.644C87.9741 116.417 94.2475 109.556 95.0917 99.0721C95.9069 89.0009 95.0772 78.8266 95.2519 68.7407C95.4265 58.4928 95.2519 48.2154 95.2519 37.9675C95.2519 35.4939 94.9316 32.7699 95.2519 30.311C95.3683 29.354 98.1921 9.93299 115.382 2.54153C127.478 -2.65604 138.598 1.56975 141 2.54153C141 10.9784 141 19.4005 141 27.8374C136.968 25.7613 132.15 25.9822 128.395 28.4558C122.922 32.0484 122.718 38.4239 122.704 38.9393C122.587 53.1185 122.471 67.283 122.354 81.4622C122.296 88.4561 122.413 95.4795 122.18 102.473C121.743 116.049 117.449 127.71 108.061 137.664C93.9273 152.668 76.4024 155.509 70.8567 156.172C68.455 156.466 35.574 159.941 14.1337 133.968C-4.774 111.043 0.43689 83.6266 1.32478 79.3567C1.95067 76.353 8.98101 45.197 38.5288 32.7699C56.5195 25.2165 72.9382 28.7503 78.7895 30.311Z" fill="white"/>
<path d="M40.8136 195.352C49.1499 195.352 55.9077 188.516 55.9077 180.083C55.9077 171.651 49.1499 164.815 40.8136 164.815C32.4774 164.815 25.7195 171.651 25.7195 180.083C25.7195 188.516 32.4774 195.352 40.8136 195.352Z" fill="white"/>
<path d="M92.2101 194.38C100.546 194.38 107.304 187.544 107.304 179.112C107.304 170.679 100.546 163.843 92.2101 163.843C83.8738 163.843 77.116 170.679 77.116 179.112C77.116 187.544 83.8738 194.38 92.2101 194.38Z" fill="white"/>
</svg>
