<svg width="136" height="187" viewBox="0 0 136 187" fill="none" xmlns="http://www.w3.org/2000/svg">
<path d="M75.9957 29.0164V57.9537C58.1656 50.3282 38.2436 57.7141 30.7045 72.6831C21.3823 91.1759 33.4281 116.223 53.3501 120.564C61.2262 122.284 69.5375 120.536 76.4169 116.448C84.8546 111.445 90.9056 104.876 91.7198 94.8406C92.5061 85.1995 91.7058 75.4598 91.8743 65.8046C92.0427 55.9944 91.8743 46.1561 91.8743 36.3458C91.8743 33.9779 91.5654 31.3703 91.8743 29.0164C91.9866 28.1002 94.7102 9.50873 111.291 2.43298C122.958 -2.5426 133.684 1.5027 136 2.43298C136 10.5095 136 18.5719 136 26.6484C132.111 24.661 127.464 24.8724 123.842 27.2404C118.563 30.6796 118.367 36.7828 118.353 37.2761C118.24 50.8497 118.128 64.4092 118.016 77.9828C117.96 84.678 118.072 91.4014 117.847 98.0966C117.426 111.092 113.284 122.256 104.229 131.784C90.5967 146.147 73.6932 148.867 68.3442 149.501C66.0277 149.783 34.3126 153.11 13.6325 128.246C-4.60472 106.3 0.421398 80.0548 1.2778 75.9672C1.8815 73.0918 8.66255 43.2666 37.1626 31.3703C54.5153 24.1395 70.3518 27.5223 75.9957 29.0164Z" fill="#009145"/>
<path d="M39.3668 187.009C47.4074 187.009 53.9257 180.465 53.9257 172.392C53.9257 164.32 47.4074 157.776 39.3668 157.776C31.3261 157.776 24.8079 164.32 24.8079 172.392C24.8079 180.465 31.3261 187.009 39.3668 187.009Z" fill="#E47514"/>
<path d="M88.94 186.078C96.9807 186.078 103.499 179.534 103.499 171.462C103.499 163.389 96.9807 156.845 88.94 156.845C80.8994 156.845 74.3811 163.389 74.3811 171.462C74.3811 179.534 80.8994 186.078 88.94 186.078Z" fill="#E47514"/>
</svg>
